<svg width="20" height="20" viewBox="0 0 20 20" fill="none" xmlns="http://www.w3.org/2000/svg">
    <path d="m9.684 14.125-3.802-4.25 3.8-4.25a.746.746 0 0 0 .192-.5.832.832 0 0 0-.222-.559c-.336-.276-.811-.25-1.086.059l-4.25 4.722a.747.747 0 0 0 0 1l4.223 4.75c.275.308.722.335 1.058.058.337-.246.362-.724.087-1.03zm.632-4.778a.747.747 0 0 0 0 1l4.221 4.75c.276.308.722.335 1.059.058a.749.749 0 0 0 .059-1.058L11.88 9.875l3.8-4.25a.746.746 0 0 0 .192-.5.832.832 0 0 0-.222-.559.75.75 0 0 0-1.059.059l-4.276 4.722z" fill="#000" fill-opacity=".45"/>
</svg>
