<svg width="16" height="15" viewBox="0 0 16 15" fill="none" xmlns="http://www.w3.org/2000/svg">
<path d="M7.56945 0.158333C7.81668 -0.0527778 8.18334 -0.0527778 8.43056 0.158333L15.7639 6.38056C16.0445 6.61944 16.0806 7.03889 15.8417 7.31944C15.6028 7.6 15.1833 7.63611 14.9028 7.39722L14.2222 6.81944V12C14.2222 13.2278 13.2278 14.2222 12 14.2222H4.00001C2.77279 14.2222 1.77779 13.2278 1.77779 12V6.81944L1.09807 7.39722C0.817232 7.63611 0.396677 7.6 0.158344 7.31944C-0.0798787 7.03889 -0.0453787 6.61944 0.235371 6.38056L7.56945 0.158333ZM3.11112 5.68889V12C3.11112 12.4917 3.50834 12.8889 4.00001 12.8889H12C12.4917 12.8889 12.8889 12.4917 12.8889 12V5.68889L8.00001 1.54083L3.11112 5.68889Z" fill="#006AB7"/>
</svg>
