<svg width="20" height="20" viewBox="0 0 20 20" fill="none" xmlns="http://www.w3.org/2000/svg">
    <path d="m10.44 5.597 3.804 4.278-3.8 4.25a.746.746 0 0 0-.192.5c0 .206.084.411.222.559a.75.75 0 0 0 1.059-.059l4.222-4.75a.747.747 0 0 0 0-1l-4.222-4.75c-.276-.308-.722-.335-1.059-.058-.283.275-.308.752-.033 1.03zm-.63 4.778a.747.747 0 0 0 0-1l-4.251-4.75A.75.75 0 0 0 4.5 4.566c-.31.276-.335.753-.058 1.03l3.802 4.28-3.8 4.25a.746.746 0 0 0-.192.5c0 .205.084.41.222.558a.75.75 0 0 0 1.059-.059l4.276-4.75z" fill="#000" fill-opacity=".45"/>
</svg>
